<svg width="25" height="25" viewBox="0 0 25 25" fill="none" xmlns="http://www.w3.org/2000/svg">
<path d="M11.6071 6.6221L11.0446 7.16376C11.1175 7.23937 11.2048 7.29952 11.3015 7.3406C11.3981 7.38167 11.5021 7.40285 11.6071 7.40285C11.7121 7.40285 11.816 7.38167 11.9127 7.3406C12.0093 7.29952 12.0967 7.23937 12.1696 7.16376L11.6071 6.6221ZM6.3998 17.9971C6.23957 17.8653 6.03355 17.8026 5.82706 17.8227C5.62058 17.8428 5.43054 17.9442 5.29876 18.1044C5.16698 18.2646 5.10425 18.4706 5.12438 18.6771C5.1445 18.8836 5.24582 19.0736 5.40605 19.2054L6.3998 17.9971ZM1.54668 14.8627C1.59593 14.9527 1.66242 15.0322 1.74236 15.0965C1.8223 15.1608 1.91413 15.2087 2.0126 15.2375C2.11107 15.2664 2.21425 15.2755 2.31625 15.2645C2.41826 15.2534 2.51709 15.2224 2.6071 15.1731C2.69711 15.1239 2.77654 15.0574 2.84085 14.9775C2.90516 14.8975 2.9531 14.8057 2.98192 14.7072C3.01075 14.6087 3.0199 14.5056 3.00884 14.4036C2.99779 14.3016 2.96676 14.2027 2.91751 14.1127L1.54668 14.8627ZM1.97168 10.4106C1.97168 8.17105 3.2373 6.29189 4.96543 5.50126C6.6446 4.73355 8.90085 4.93668 11.0446 7.16376L12.1696 6.08147C9.62793 3.43876 6.67376 3.0023 4.31543 4.08043C2.00918 5.13564 0.40918 7.58564 0.40918 10.4106H1.97168ZM7.95814 21.2054C8.49251 21.6263 9.06543 22.0742 9.64564 22.4138C10.2258 22.7533 10.8883 23.0283 11.6071 23.0283V21.4658C11.2842 21.4658 10.905 21.3408 10.4342 21.0648C9.9623 20.7898 9.47376 20.4106 8.92585 19.9783L7.95814 21.2054ZM15.2561 21.2054C16.7415 20.0336 18.6415 18.6919 20.1311 17.0138C21.6488 15.3054 22.805 13.1877 22.805 10.4106H21.2425C21.2425 12.7002 20.305 14.4638 18.9633 15.9763C17.5936 17.5179 15.8675 18.7336 14.2883 19.9783L15.2561 21.2054ZM22.805 10.4106C22.805 7.58564 21.2061 5.13564 18.8988 4.08043C16.5404 3.0023 13.5883 3.43876 11.0446 6.08043L12.1696 7.16376C14.3133 4.93772 16.5696 4.73355 18.2488 5.50126C19.9769 6.29189 21.2425 8.17001 21.2425 10.4106H22.805ZM14.2883 19.9783C13.7404 20.4106 13.2519 20.7898 12.78 21.0648C12.3081 21.3398 11.93 21.4658 11.6071 21.4658V23.0283C12.3258 23.0283 12.9883 22.7523 13.5686 22.4138C14.1498 22.0742 14.7217 21.6263 15.2561 21.2054L14.2883 19.9783ZM8.92585 19.9783C8.09668 19.3252 7.25397 18.7002 6.3998 17.9971L5.40605 19.2054C6.27064 19.9169 7.18522 20.5961 7.95814 21.2054L8.92585 19.9783ZM2.91751 14.1138C2.28993 12.9809 1.96423 11.7057 1.97168 10.4106H0.40918C0.40918 12.1169 0.84668 13.5825 1.54668 14.8627L2.91751 14.1138Z" fill="black"/>
</svg>
