<!DOCTYPE svg PUBLIC "-//W3C//DTD SVG 1.1//EN" "http://www.w3.org/Graphics/SVG/1.1/DTD/svg11.dtd">

<!-- Uploaded to: SVG Repo, www.svgrepo.com, Transformed by: SVG Repo Mixer Tools -->
<svg width="100px" height="100px" viewBox="0 0 100 100" class="icon" version="1.1" xmlns="http://www.w3.org/2000/svg" fill="#000000">

<g id="SVGRepo_bgCarrier" stroke-width="0"/>

<g id="SVGRepo_tracerCarrier" stroke-linecap="round" stroke-linejoin="round"/>

<g id="SVGRepo_iconCarrier">

<path d="M440.470588 858.352941c-91.482353 0-180.705882-31.247059-251.858823-88.470588-70.023529-56.094118-119.717647-135.152941-140.42353-222.117647-7.152941-30.117647-10.541176-61.364706-10.541176-92.235294 0-1.129412 0-1.882353 0.37647-2.635294-0.376471-0.752941-0.376471-1.882353-0.37647-2.635294 0-9.411765 0.752941-19.2 1.505882-28.611765 0.376471-5.270588 4.894118-9.035294 10.164706-8.658824 5.270588 0.376471 9.035294 4.894118 8.658824 10.164706-0.752941 9.035294-1.129412 18.070588-1.129412 27.105883 0 0.752941 0 1.882353-0.376471 2.635294 0.376471 0.752941 0.376471 1.882353 0.376471 2.635294 0 29.741176 3.388235 59.482353 10.164706 88.094117C107.294118 717.929412 261.270588 839.529412 440.470588 839.529412c211.952941 0 384-172.423529 384-384S652.423529 71.529412 440.470588 71.529412c-134.023529 0-256 67.764706-326.77647 181.835294-7.905882 12.8-15.058824 25.976471-21.458824 39.529412-2.258824 4.517647-7.905882 6.776471-12.423529 4.517647-4.517647-1.882353-6.776471-7.529412-4.517647-12.047059 6.776471-14.305882 14.305882-28.235294 22.588235-41.411765C133.270588 186.729412 182.964706 138.917647 241.694118 105.411765c60.235294-34.635294 128.752941-52.705882 198.77647-52.705883 107.670588 0 208.941176 41.788235 284.988236 117.835294C801.505882 246.588235 843.294118 347.858824 843.294118 455.529412s-41.788235 208.941176-117.835294 284.988235S548.141176 858.352941 440.470588 858.352941z m3.764706-73.411765c-181.458824 0-329.411765-147.576471-329.411765-329.411764 0-181.458824 147.576471-329.411765 329.411765-329.411765s329.411765 147.576471 329.411765 329.411765c-0.376471 181.458824-147.952941 329.411765-329.411765 329.411764z m0-640c-171.294118 0-310.588235 139.294118-310.588235 310.588236s139.294118 310.588235 310.588235 310.588235 310.588235-139.294118 310.588235-310.588235-139.294118-310.588235-310.588235-310.588236zM59.858824 365.176471c-0.752941 0-1.505882 0-2.258824-0.376471-4.894118-1.129412-7.905882-6.4-6.776471-11.294118 1.882353-7.152941 4.141176-14.305882 6.4-21.458823 0.752941-3.011765 1.882353-5.647059 3.011765-8.658824 1.505882-4.894118 7.152941-7.529412 12.047059-5.647059 4.894118 1.505882 7.529412 7.152941 5.647059 12.047059-1.129412 2.635294-1.882353 5.647059-2.635294 8.282353-2.258824 6.776471-4.141176 13.552941-6.02353 20.329412-1.505882 3.764706-5.270588 6.776471-9.411764 6.776471z" fill="#3E0061"/>

<path d="M207.058824 761.223529l0.37647 0.376471c1.129412 0.752941 2.258824 1.882353 3.388235 2.635294-1.129412-1.129412-2.258824-1.882353-3.764705-3.011765zM219.482353 770.258824l0.376471 0.37647c0.376471 0 0.376471 0.376471 0.752941 0.376471-0.376471 0-0.752941-0.376471-1.129412-0.752941zM204.8 758.588235c1.129412 0.752941 2.258824 1.505882 3.011765 2.258824 2.258824 1.505882 4.894118 3.011765 7.152941 4.894117 0.752941 0.376471 1.505882 1.129412 2.258823 1.505883 3.011765 1.882353 6.4 3.764706 9.788236 5.647059l2.258823 1.129411c2.635294 1.505882 5.270588 3.011765 7.529412 4.141177 1.129412 0.752941 2.258824 1.129412 3.388235 1.882353 2.258824 1.129412 4.517647 2.635294 7.152941 3.764706 1.129412 0.376471 2.258824 1.129412 3.011765 1.505882 3.011765 1.505882 6.023529 3.011765 9.411765 4.517647 0.376471 0 0.376471 0.376471 0.752941 0.376471l10.164706 4.517647c1.129412 0.376471 1.882353 0.752941 3.011765 1.129412 2.635294 1.129412 4.894118 1.882353 7.529411 3.011764l3.388236 1.129412c2.635294 1.129412 5.270588 1.882353 7.905882 2.635294 0.752941 0.376471 1.882353 0.752941 2.635294 1.129412 3.388235 1.129412 6.776471 2.258824 10.541177 3.388235 0.752941 0.376471 1.129412 0.376471 1.882353 0.752941 3.011765 0.752941 5.647059 1.882353 8.658823 2.635294 1.129412 0.376471 2.258824 0.752941 3.388235 0.752942 2.635294 0.752941 4.894118 1.505882 7.529412 1.882353 1.129412 0.376471 2.258824 0.376471 3.388235 0.752941 3.011765 0.752941 6.4 1.505882 9.411765 2.258823 0.376471 0 0.752941 0.376471 1.129412 0.376471 3.388235 0.752941 7.152941 1.505882 10.541176 2.258823 1.129412 0 1.882353 0.376471 3.011765 0.376471l7.905882 1.129412c1.129412 0 2.258824 0.376471 3.388236 0.37647l7.905882 1.129412c1.129412 0 1.882353 0.376471 3.011765 0.376471 3.764706 0.376471 7.152941 0.752941 10.917647 1.129411h1.505882c3.011765 0.376471 6.023529 0.376471 9.411765 0.752942h3.388235c2.635294 0 5.270588 0.376471 7.905883 0.37647h14.305882c3.764706 0 7.152941 0 10.917647-0.37647h2.635294c2.635294 0 5.647059-0.376471 8.282353-0.376471 1.129412 0 2.258824 0 3.388235-0.376471 2.635294-0.376471 5.270588-0.376471 7.905883-0.752941 1.129412 0 1.882353 0 3.011764-0.37647 3.764706-0.376471 7.152941-0.752941 10.917647-1.129412h0.752942c3.388235-0.376471 6.776471-0.752941 9.788235-1.505882 1.129412 0 2.258824-0.376471 3.011765-0.376471 2.635294-0.376471 5.270588-0.752941 7.905882-1.505882 1.129412-0.376471 2.258824-0.376471 3.388235-0.752942 3.011765-0.752941 6.023529-1.129412 8.658824-1.882352 0.752941 0 1.129412-0.376471 1.882353-0.376471 3.388235-0.752941 7.152941-1.505882 10.541176-2.635294 0.752941-0.376471 1.505882-0.376471 2.258824-0.752941 2.635294-0.752941 5.270588-1.505882 8.282353-2.258824l3.388235-1.129412c2.635294-0.752941 5.270588-1.505882 7.529412-2.258823 1.129412-0.376471 1.882353-0.752941 3.011764-0.752941l10.164706-3.388236c66.635294-24.094118 127.623529-66.635294 173.929412-126.870588 62.117647-80.564706 86.964706-178.447059 77.552941-272.564706v-1.129412c-1.129412-11.294118-2.635294-22.211765-4.894117-33.129411v-0.376471c-0.752941-3.764706-1.505882-7.152941-2.258824-10.917647-4.894118-17.694118-10.917647-35.011765-18.070588-51.952941-16.188235-37.270588-37.647059-70.776471-62.870588-99.764706-3.764706-4.517647-7.905882-9.035294-12.047059-13.176471 0.376471-1.505882 0.376471-3.011765 0-4.517647 11.670588 10.541176 22.588235 21.835294 32.752941 33.882353 25.223529 28.988235 46.682353 62.494118 62.870588 99.764706 7.152941 16.564706 13.176471 33.505882 17.694118 50.447059-15.435294-68.141176-48.941176-129.129412-95.247059-178.070588l-0.752941-0.752941c-7.905882-8.282353-15.811765-15.811765-24.094118-23.341177l-0.37647-0.37647c-2.635294-2.258824-5.647059-4.894118-8.282353-7.152942-14.305882-10.917647-29.741176-21.082353-46.305883-30.117647-35.388235-19.576471-72.658824-33.129412-110.682353-40.658823-147.2-30.870588-305.694118 26.352941-396.047058 158.117647-67.011765 97.505882-82.823529 215.717647-53.082353 321.505882 5.647059 17.317647 12.8 34.258824 21.082353 51.2 1.882353 3.764706 4.141176 7.905882 6.023529 11.670588 22.211765 46.305882 53.458824 88.470588 93.364706 123.482353-0.376471 0 1.129412 0.752941 2.635294 1.882353z m-22.211765-103.152941c-0.376471-0.376471-0.376471-0.752941-0.752941-1.129412-2.258824-3.011765-4.894118-6.4-7.152941-9.411764l-0.376471-0.376471c-2.258824-3.388235-4.517647-6.4-6.77647-9.788235l-0.376471-0.376471c-2.258824-3.388235-4.141176-6.776471-6.4-10.164706 0-0.376471-0.376471-0.376471-0.37647-0.752941-4.141176-6.776471-7.905882-13.929412-11.294118-21.082353 0-0.376471-0.376471-0.752941-0.376471-1.129412-3.388235-7.152941-6.776471-14.305882-9.788235-21.835294 0-0.376471-0.376471-0.752941-0.376471-1.129411l-4.517647-11.294118c-12.8-35.011765-19.576471-72.658824-19.57647-111.811765 0-181.458824 147.576471-329.411765 329.411765-329.411765 154.729412 0 284.611765 106.917647 320 251.105883 0 0.376471 0 0.752941 0.37647 1.129412 1.505882 6.776471 3.011765 13.929412 4.141177 20.705882 0 0.376471 0 0.752941 0.37647 1.129412 0.376471 3.011765 1.129412 6.023529 1.505883 9.035294 0 0.752941 0 1.129412 0.37647 1.882353 0.752941 6.776471 1.505882 13.552941 2.258824 20.705882v2.635294c0 2.635294 0.376471 5.270588 0.37647 7.905883v13.17647c0 4.517647 0 8.658824-0.37647 12.8v2.258824c0 4.141176-0.376471 8.282353-0.752942 12.423529 0 0.752941 0 1.505882-0.37647 2.258824-0.376471 4.141176-0.752941 8.282353-1.505882 12.423529v0.752941c-0.376471 4.141176-1.129412 7.905882-1.882353 12.047059 0 0.752941-0.376471 1.129412-0.376471 1.882353-0.752941 4.141176-1.505882 7.905882-2.258824 12.047059 0 0.752941-0.376471 1.505882-0.37647 2.258823-0.752941 4.141176-1.882353 7.905882-3.011765 12.047059 0 0.376471-0.376471 0.752941-0.37647 1.129412l-3.388236 11.294118c0 0.376471-0.376471 0.752941-0.37647 1.129411-1.129412 3.764706-2.635294 7.905882-3.764706 11.670589-0.376471 0.752941-0.376471 1.505882-0.752941 1.882353-1.505882 3.764706-2.635294 7.529412-4.141177 11.294117 0 0.376471-0.376471 0.752941-0.752941 1.505883-1.505882 3.764706-3.011765 7.529412-4.894118 11.294117 0 0 0 0.376471-0.37647 0.376471-1.505882 3.764706-3.388235 7.529412-5.270588 10.917647-0.376471 0.752941-0.752941 1.129412-0.752942 1.882353-1.882353 3.764706-3.764706 7.152941-5.647058 10.541176-0.376471 0.376471-0.376471 1.129412-0.752942 1.505883-4.141176 7.152941-8.282353 14.305882-12.8 21.082353-0.376471 0.376471-0.752941 0.752941-0.752941 1.505882-2.258824 3.388235-4.517647 6.776471-6.77647 9.788235-0.376471 0.376471-0.752941 0.752941-1.129412 1.505883-2.258824 3.388235-4.894118 6.776471-7.529412 9.788235l-0.376471 0.37647c-3.388235 4.141176-6.4 8.282353-10.164705 12.047059-17.317647 19.952941-36.517647 37.647059-57.6 52.329412-3.011765 2.258824-6.4 4.517647-9.411765 6.4-0.376471 0.376471-1.129412 0.752941-1.505882 1.129412-6.4 4.141176-12.8 8.282353-19.576471 12.047059-0.376471 0.376471-1.129412 0.752941-1.505882 0.752941-3.388235 1.882353-6.776471 3.764706-10.164706 5.270588-0.376471 0-0.752941 0.376471-1.129412 0.376471-3.011765 1.505882-6.4 3.011765-9.788235 4.517647-0.376471 0.376471-0.752941 0.376471-1.505883 0.752941-3.388235 1.505882-6.776471 3.011765-10.541176 4.517647-0.752941 0.376471-1.129412 0.376471-1.882353 0.752941-3.388235 1.505882-6.776471 2.635294-10.164706 4.141177-0.376471 0-0.376471 0-0.752941 0.37647-3.388235 1.129412-7.152941 2.635294-10.917647 3.764706-0.752941 0.376471-1.505882 0.376471-2.258824 0.752941-7.152941 2.258824-14.682353 4.517647-22.211764 6.4-0.752941 0-1.505882 0.376471-2.258824 0.376471-3.764706 0.752941-7.529412 1.882353-10.917647 2.635294-0.376471 0-1.129412 0.376471-1.505882 0.37647-3.388235 0.752941-6.776471 1.129412-10.164706 1.882353-0.752941 0-1.505882 0.376471-2.258824 0.376471-3.764706 0.752941-7.529412 1.129412-11.294117 1.505882-0.752941 0-1.505882 0-2.258824 0.376471-3.388235 0.376471-6.776471 0.752941-10.541176 1.129412h-1.505883c-3.764706 0.376471-7.529412 0.376471-11.670588 0.752941h-2.635294c-3.764706 0-7.905882 0.376471-11.670588 0.37647-4.141176 0-7.905882 0-11.670589-0.37647h-2.635294c-3.764706 0-7.529412-0.376471-11.670588-0.752941h-1.505882c-3.388235-0.376471-6.776471-0.752941-10.541177-1.129412-0.752941 0-1.505882 0-2.258823-0.376471-3.764706-0.376471-7.529412-1.129412-11.294118-1.505882-0.752941 0-1.505882-0.376471-2.258824-0.376471-3.388235-0.376471-6.776471-1.129412-10.164705-1.882353-0.376471 0-1.129412-0.376471-1.505883-0.37647-3.764706-0.752941-7.529412-1.505882-10.917647-2.258824-0.752941-0.376471-1.505882-0.376471-2.258823-0.752941-3.764706-0.752941-7.152941-1.882353-10.917647-3.011765h-0.376471c-3.764706-1.129412-7.152941-2.258824-10.917647-3.388235-0.752941-0.376471-1.505882-0.376471-2.258824-0.752941-3.388235-1.129412-7.152941-2.258824-10.541176-3.764706-0.376471 0-0.752941-0.376471-1.129412-0.37647-3.388235-1.129412-6.4-2.635294-9.788235-3.764706-0.752941-0.376471-1.129412-0.376471-1.882353-0.752942l-10.164706-4.517647c-0.376471-0.376471-1.129412-0.376471-1.505882-0.752941-3.011765-1.505882-6.4-3.011765-9.411765-4.517647-0.376471-0.376471-0.752941-0.376471-1.129412-0.752941-3.388235-1.882353-6.776471-3.388235-9.788235-5.270588-0.752941-0.376471-1.129412-0.752941-1.882353-1.129412-3.388235-1.882353-6.4-3.764706-9.788235-5.647059-3.388235-1.882353-6.4-4.141176-9.788236-6.023529-0.376471-0.376471-1.129412-0.752941-1.505882-1.129412-3.011765-2.258824-6.4-4.141176-9.411765-6.4l-9.035294-6.776471-1.129412-1.129411c-3.011765-2.258824-6.023529-4.517647-9.035294-7.152942l-0.752941-0.752941c-2.635294-2.258824-5.647059-4.894118-8.282353-7.152941l-0.752941-0.752941c-3.011765-2.635294-5.647059-5.270588-8.282353-7.905882l-1.129412-1.129412c-5.647059-5.270588-10.917647-10.917647-16.188235-16.941177l-1.129412-1.129411c-3.011765-4.894118-7.905882-10.917647-12.8-16.941177z" fill="#bababa"/>

<path d="M822.964706 417.882353v-1.129412c-1.129412-11.294118-2.635294-22.211765-4.894118-33.129412v-0.37647c-0.752941-3.764706-1.505882-7.152941-2.258823-10.917647-4.894118-17.694118-10.917647-35.011765-18.070589-51.952941-16.188235-37.270588-37.647059-70.776471-62.870588-99.764706-10.164706-12.047059-21.082353-23.341176-32.752941-33.882353 0.376471 1.505882 0 3.011765 0 4.517647 4.141176 4.517647 8.282353 8.658824 12.047059 13.17647 25.223529 28.988235 46.682353 62.494118 62.870588 99.764706 7.529412 17.317647 13.552941 34.635294 18.070588 51.952941 0.752941 3.764706 1.505882 7.152941 2.258824 10.917648v0.37647c2.258824 10.917647 3.764706 22.211765 4.894118 33.129412v1.129412c9.411765 94.117647-15.435294 192-77.552942 272.564706-46.305882 60.235294-107.294118 103.152941-173.929411 126.870588l-10.164706 3.388235c-0.752941 0.376471-1.882353 0.752941-3.011765 0.752941-2.635294 0.752941-5.270588 1.505882-7.529412 2.258824l-3.388235 1.129412c-2.635294 0.752941-5.270588 1.505882-8.282353 2.258823-0.752941 0.376471-1.505882 0.376471-2.258824 0.752941-3.388235 0.752941-7.152941 1.882353-10.541176 2.635294-0.752941 0-1.129412 0.376471-1.882353 0.376471-3.011765 0.752941-6.023529 1.129412-8.658823 1.882353-1.129412 0.376471-2.258824 0.376471-3.388236 0.752941-2.635294 0.376471-5.270588 1.129412-7.905882 1.505882-1.129412 0-2.258824 0.376471-3.011765 0.376471-3.388235 0.376471-6.4 1.129412-9.788235 1.505882h-0.752941c-3.764706 0.376471-7.152941 0.752941-10.917647 1.129412-1.129412 0-1.882353 0-3.011765 0.376471-2.635294 0.376471-5.270588 0.376471-7.905882 0.752941-1.129412 0-2.258824 0-3.388236 0.37647-2.635294 0-5.647059 0.376471-8.282353 0.376471h-2.635294c-3.764706 0-7.152941 0.376471-10.917647 0.376471h-14.305882c-2.635294 0-5.270588 0-7.905883-0.376471h-3.388235c-3.011765 0-6.023529-0.376471-9.411765-0.752941h-1.505882c-3.764706-0.376471-7.152941-0.752941-10.917647-1.129412-1.129412 0-1.882353-0.376471-3.011765-0.37647l-7.905882-1.129412c-1.129412 0-2.258824-0.376471-3.388235-0.376471l-7.905883-1.129412c-1.129412 0-1.882353-0.376471-3.011764-0.37647-3.388235-0.752941-7.152941-1.505882-10.541177-2.258824-0.376471 0-0.752941-0.376471-1.129412-0.37647-3.011765-0.752941-6.4-1.505882-9.411764-2.258824-1.129412-0.376471-2.258824-0.376471-3.388236-0.752941-2.635294-0.752941-4.894118-1.129412-7.529411-1.882353-1.129412-0.376471-2.258824-0.752941-3.388236-0.752941-3.011765-0.752941-5.647059-1.505882-8.658823-2.635294-0.752941-0.376471-1.129412-0.376471-1.882353-0.752941-3.388235-1.129412-6.776471-2.258824-10.541177-3.388236-0.752941-0.376471-1.882353-0.752941-2.635294-1.129411-2.635294-0.752941-5.270588-1.882353-7.905882-2.635295l-3.388235-1.129411c-2.635294-1.129412-4.894118-1.882353-7.529412-3.011765-1.129412-0.376471-1.882353-0.752941-3.011765-1.129412l-10.164706-4.517647c-0.376471 0-0.376471-0.376471-0.752941-0.37647-3.011765-1.505882-6.4-3.011765-9.411765-4.517648-1.129412-0.376471-2.258824-1.129412-3.011764-1.505882-2.258824-1.129412-4.894118-2.258824-7.152941-3.764706-1.129412-0.752941-2.258824-1.129412-3.388236-1.882353-2.635294-1.505882-5.270588-2.635294-7.529412-4.141176l-2.258823-1.129412c-3.388235-1.882353-6.4-3.764706-9.788235-5.647059-0.752941-0.376471-1.505882-1.129412-2.258824-1.505882-2.258824-1.505882-4.894118-3.011765-7.152941-4.894118-1.129412-0.752941-2.258824-1.505882-3.011765-2.258823l-6.77647-4.517647c-0.376471-0.376471-0.752941-0.376471-1.129412-0.752942 3.388235 2.635294 6.4 5.270588 9.788235 7.905883 3.011765 2.258824 6.023529 4.517647 9.411765 6.77647 1.129412 0.752941 1.882353 1.505882 3.011765 1.882353l6.77647 4.517647c1.129412 0.752941 2.258824 1.505882 3.011765 2.258824 2.258824 1.505882 4.894118 3.011765 7.152941 4.894118 0.752941 0.376471 1.505882 1.129412 2.258824 1.505882 3.011765 1.882353 6.4 3.764706 9.788235 5.647059l2.258823 1.129412c2.635294 1.505882 5.270588 3.011765 7.529412 4.141176 1.129412 0.752941 2.258824 1.129412 3.388235 1.882353 2.258824 1.129412 4.517647 2.635294 7.152942 3.764706 1.129412 0.376471 2.258824 1.129412 3.011764 1.505882 3.011765 1.505882 6.023529 3.011765 9.411765 4.517647 0.376471 0 0.376471 0.376471 0.752941 0.376471l10.164706 4.517647c1.129412 0.376471 1.882353 0.752941 3.011765 1.129412 2.635294 1.129412 4.894118 1.882353 7.529412 3.011764l3.388235 1.129412c2.635294 1.129412 5.270588 1.882353 7.905882 2.635294 0.752941 0.376471 1.882353 0.752941 2.635294 1.129412 3.388235 1.129412 6.776471 2.258824 10.541177 3.388235 0.752941 0.376471 1.129412 0.376471 1.882353 0.752941 3.011765 0.752941 5.647059 1.882353 8.658823 2.635295 1.129412 0.376471 2.258824 0.752941 3.388236 0.752941 2.635294 0.752941 4.894118 1.505882 7.529411 1.882353 1.129412 0.376471 2.258824 0.376471 3.388236 0.752941 3.011765 0.752941 6.4 1.505882 9.411764 2.258823 0.376471 0 0.752941 0.376471 1.129412 0.376471 3.388235 0.752941 7.152941 1.505882 10.541177 2.258824 1.129412 0 1.882353 0.376471 3.011764 0.37647l7.905883 1.129412c1.129412 0 2.258824 0.376471 3.388235 0.37647l7.905882 1.129412c1.129412 0 1.882353 0.376471 3.011765 0.376471 3.764706 0.376471 7.152941 0.752941 10.917647 1.129412h1.505882c3.011765 0.376471 6.023529 0.376471 9.411765 0.752941h3.388235c2.635294 0 5.270588 0.376471 7.905883 0.37647h14.305882c3.764706 0 7.152941 0 10.917647-0.37647h2.635294c2.635294 0 5.647059-0.376471 8.282353-0.376471 1.129412 0 2.258824 0 3.388236-0.37647 2.635294-0.376471 5.270588-0.376471 7.905882-0.752942 1.129412 0 1.882353 0 3.011765-0.37647 3.764706-0.376471 7.152941-0.752941 10.917647-1.129412h0.752941c3.388235-0.376471 6.776471-0.752941 9.788235-1.505882 1.129412 0 2.258824-0.376471 3.011765-0.376471 2.635294-0.376471 5.270588-0.752941 7.905882-1.505882 1.129412-0.376471 2.258824-0.376471 3.388235-0.752941 3.011765-0.752941 6.023529-1.129412 8.658824-1.882353 0.752941 0 1.129412-0.376471 1.882353-0.376471 3.388235-0.752941 7.152941-1.505882 10.541176-2.635294 0.752941-0.376471 1.505882-0.376471 2.258824-0.752941 2.635294-0.752941 5.270588-1.505882 8.282353-2.258824l3.388235-1.129412c2.635294-0.752941 5.270588-1.505882 7.529412-2.258823 1.129412-0.376471 1.882353-0.752941 3.011765-0.752941l10.164706-3.388236c66.635294-24.094118 127.623529-66.635294 173.929411-126.870588 61.741176-80.188235 86.588235-178.070588 77.176471-272.188235z" fill="#3E0061"/>

<path d="M308.705882 389.647059m-45.17647 0a45.176471 45.176471 0 1 0 90.352941 0 45.176471 45.176471 0 1 0-90.352941 0Z" fill="#3E0061"/>

<path d="M124.235294 478.117647a37.647059 26.352941 90 1 0 52.705882 0 37.647059 26.352941 90 1 0-52.705882 0Z" fill="#3E0061"/>

<path d="M143.058824 463.058824m-11.294118 0a11.294118 11.294118 0 1 0 22.588235 0 11.294118 11.294118 0 1 0-22.588235 0Z" fill="#3E0061"/>

<path d="M707.764706 478.117647a37.647059 26.352941 90 1 0 52.705882 0 37.647059 26.352941 90 1 0-52.705882 0Z" fill="#3E0061"/>

<path d="M745.411765 463.058824m-11.294118 0a11.294118 11.294118 0 1 0 22.588235 0 11.294118 11.294118 0 1 0-22.588235 0Z" fill="#3E0061"/>

<path d="M143.058824 459.294118m-11.294118 0a11.294118 11.294118 0 1 0 22.588235 0 11.294118 11.294118 0 1 0-22.588235 0Z" fill="#3E0061"/>

<path d="M745.411765 459.294118m-11.294118 0a11.294118 11.294118 0 1 0 22.588235 0 11.294118 11.294118 0 1 0-22.588235 0Z" fill="#3E0061"/>

<path d="M587.294118 389.647059m-45.176471 0a45.176471 45.176471 0 1 0 90.352941 0 45.176471 45.176471 0 1 0-90.352941 0Z" fill="#3E0061"/>

<path d="M360.658824 531.2c1.505882 1.129412 2.635294 2.635294 3.764705 4.141176 8.282353 11.294118 9.035294 27.105882 19.576471 36.141177 9.035294 7.529412 22.588235 7.152941 33.129412 2.258823 6.776471-3.011765 12.423529-7.529412 17.694117-12.8 6.776471-6.023529 6.776471-10.164706 14.305883-4.141176 9.411765 7.529412 15.058824 19.2 28.235294 20.705882 30.870588 3.388235 31.247059-40.282353 55.717647-48.188235 3.764706-1.129412 8.282353-1.129412 11.670588 1.505882 3.764706 3.011765 4.517647 7.905882 4.517647 12.42353 0 20.705882-15.058824 41.411765-30.494117 54.211765-15.435294 12.423529-32.752941 15.058824-48.564706 2.258823-9.788235-7.905882-22.588235-12.8-35.011765-7.152941-10.541176 4.517647-18.070588 15.058824-29.364706 16.564706-7.529412 1.129412-15.435294-2.258824-21.835294-6.4-16.941176-10.164706-30.494118-25.6-39.152941-43.294118-3.011765-6.023529-5.270588-12.8-3.764706-19.2 1.505882-6.4 7.529412-12.423529 14.305882-11.294118 2.258824 0.376471 3.764706 1.129412 5.270589 2.258824z" fill="#3E0061"/>

<path d="M1226.917647 891.105882l-30.494118-17.694117h-48.941176c5.270588 0 9.411765-4.141176 9.411765-9.411765v-4.517647c0-5.270588-4.141176-9.411765-9.411765-9.411765h-69.270588c-5.270588 0-9.411765-4.141176-9.411765-9.411764s4.141176-9.411765 9.411765-9.411765h45.552941l-32.376471-18.82353h-65.505882c-5.270588 0-9.411765-4.141176-9.411765-9.411764s4.141176-9.411765 9.411765-9.411765h33.129412L963.011765 737.882353h-34.258824c-3.011765 0-5.647059-1.505882-7.529412-3.764706h-3.764705c-5.270588 0-9.411765-4.141176-9.411765-9.411765s4.141176-9.411765 9.411765-9.411764h6.77647l-121.223529-70.4c-13.176471 24.094118-28.611765 47.058824-46.305883 68.141176l429.176471 248.470588c16.188235 9.411765 36.894118 3.764706 46.305882-12.423529l7.152941-12.423529a33.882353 33.882353 0 0 0 3.388236-25.6c-2.258824-8.282353-7.905882-15.435294-15.811765-19.952942z" fill="#bababa"/>

<path d="M1242.729412 911.811765c-2.258824-8.658824-7.905882-16.188235-15.811765-20.705883l-46.305882-26.729411-23.717647-13.552942-14.682353-0.37647c13.176471 13.929412 33.129412 33.129412 50.823529 42.164706 30.117647 15.058824 0 73.411765 0 73.411764s11.294118 5.647059 26.352941-3.388235c1.505882-0.752941 3.011765-1.882353 4.517647-3.011765l0.376471-0.37647c3.388235-2.635294 6.023529-6.023529 7.905882-9.411765l6.776471-12.047059c4.894118-8.282353 6.023529-17.317647 3.764706-25.97647z" fill="#3E0061"/>

<path d="M1124.141176 831.623529h18.82353c5.270588 0 9.411765-4.141176 9.411765-9.411764v-0.376471L1136.941176 813.176471h-45.17647l32.37647 18.447058zM1059.764706 794.352941h45.17647l-97.129411-56.470588h-45.176471zM1183.247059 850.070588h16.941176c0.376471 0 0.376471-0.376471 0-0.752941l-24.847059-14.305882h-0.37647c-1.505882 2.258824-2.258824 4.894118-1.505882 7.905882 1.505882 4.517647 5.647059 7.152941 9.788235 7.152941z" fill="#3E0061"/>

<path d="M1127.152941 696.847059h-49.694117c1.882353 2.258824 4.517647 3.764706 7.529411 3.764706h108.047059c-1.882353-2.258824-4.517647-3.764706-7.529412-3.764706h-58.352941zM1105.317647 734.117647c1.882353 2.258824 4.517647 3.764706 7.529412 3.764706h127.247059c-1.882353-2.258824-4.517647-3.764706-7.529412-3.764706h-127.247059zM969.411765 696.847059h3.764706c-1.129412-1.505882-1.882353-3.388235-1.882353-5.647059 0-5.270588 4.141176-9.411765 9.411764-9.411765H1043.576471c-6.4 0-11.670588-5.270588-11.670589-11.670588 0-6.4 5.270588-11.670588 11.670589-11.670588h130.635294c-2.258824-2.258824-5.270588-3.764706-8.658824-3.764706h-133.647059c-6.4 0-11.670588 5.270588-11.670588 11.670588 0 6.4 5.270588 11.670588 11.670588 11.670588H969.035294c-5.270588 0-9.411765 4.141176-9.411765 9.411765s4.517647 9.411765 9.788236 9.411765zM919.341176 728.847059c0-5.270588 4.141176-9.411765 9.411765-9.411765h116.329412c5.270588 0 9.411765-4.141176 9.411765-9.411765s-4.141176-9.411765-9.411765-9.411764h-3.764706c1.129412 1.505882 1.882353 3.388235 1.882353 5.647059 0 5.270588-4.141176 9.411765-9.411765 9.411764h-116.329411c-5.270588 0-9.411765 4.141176-9.411765 9.411765s4.141176 9.411765 9.411765 9.411765h3.764705c-1.129412-1.882353-1.882353-3.764706-1.882353-5.647059zM1057.882353 747.294118c0-4.517647 3.388235-8.282353 7.529412-9.035294h-17.317647c-1.129412 1.505882-1.882353 3.388235-1.882353 5.647058 0 4.517647 3.388235 8.282353 7.529411 9.035294h-1.882352 7.152941c-0.376471-1.505882-1.129412-3.388235-1.129412-5.647058z" fill="#bababa"/>

<path d="M1243.482353 756.705882H1063.905882h1.882353c-4.141176-0.752941-7.529412-4.517647-7.529411-9.035294s3.388235-8.282353 7.529411-9.035294h-137.035294c-5.270588 0-9.411765-4.141176-9.411765-9.411765s4.141176-9.411765 9.411765-9.411764h116.329412c5.270588 0 9.411765-4.141176 9.411765-9.411765s-4.141176-9.411765-9.411765-9.411765h-64.376471c-5.270588 0-9.411765-4.141176-9.411764-9.411764s4.141176-9.411765 9.411764-9.411765H1043.576471c-6.4 0-11.670588-5.270588-11.670589-11.670588 0-6.4 5.270588-11.670588 11.670589-11.670589h133.647058c6.4 0 11.670588 5.270588 11.670589 11.670589 0 6.4-5.270588 11.670588-11.670589 11.670588h-92.235294c-5.270588 0-9.411765 4.141176-9.411764 9.411765s4.141176 9.411765 9.411764 9.411764h111.811765c5.270588 0 9.411765 4.141176 9.411765 9.411765s-4.141176 9.411765-9.411765 9.411765h-83.952941c-5.270588 0-9.411765 4.141176-9.411765 9.411764s4.141176 9.411765 9.411765 9.411765h131.011765c5.270588 0 9.411765 4.141176 9.411764 9.411765-0.376471 4.517647-4.517647 8.658824-9.788235 8.658823zM1484.423529 835.764706H1304.847059h1.882353c-4.141176 0.752941-7.529412 4.517647-7.529412 9.035294s3.388235 8.282353 7.529412 9.035294h-137.035294c-5.270588 0-9.411765 4.141176-9.411765 9.411765s4.141176 9.411765 9.411765 9.411765h116.329411c5.270588 0 9.411765 4.141176 9.411765 9.411764s-4.141176 9.411765-9.411765 9.411765h-64.37647c-5.270588 0-9.411765 4.141176-9.411765 9.411765s4.141176 9.411765 9.411765 9.411764H1284.517647c-6.4 0-11.670588 5.270588-11.670588 11.670589 0 6.4 5.270588 11.670588 11.670588 11.670588h133.647059c6.4 0 11.670588-5.270588 11.670588-11.670588 0-6.4-5.270588-11.670588-11.670588-11.670589h-92.235294c-5.270588 0-9.411765-4.141176-9.411765-9.411764s4.141176-9.411765 9.411765-9.411765h111.811764c5.270588 0 9.411765-4.141176 9.411765-9.411765s-4.141176-9.411765-9.411765-9.411764h-83.952941c-5.270588 0-9.411765-4.141176-9.411764-9.411765s4.141176-9.411765 9.411764-9.411765h131.011765c5.270588 0 9.411765-4.141176 9.411765-9.411765-0.376471-4.517647-4.517647-8.658824-9.788236-8.658823z" fill="#3E0061"/>

<path d="M1232.941176 895.623529h-26.352941c-5.270588 0-9.411765 4.141176-9.411764 9.411765s4.141176 9.411765 9.411764 9.411765h36.894118c0-0.752941-0.376471-1.505882-0.376471-2.635294-1.882353-6.4-5.270588-12.047059-10.164706-16.188236z" fill="#bababa"/>

<path d="M1469.364706 839.529412H1289.788235h1.882353c-4.141176 0.752941-7.529412 4.517647-7.529412 9.035294s3.388235 8.282353 7.529412 9.035294h-137.035294c-5.270588 0-9.411765 4.141176-9.411765 9.411765s4.141176 9.411765 9.411765 9.411764h47.811765l-6.02353-3.388235h11.670589l32.752941-0.37647c1.882353 1.129412 3.388235 2.258824 4.894117 3.764705H1270.964706c5.270588 0 9.411765 4.141176 9.411765 9.411765s-4.141176 9.411765-9.411765 9.411765h-10.541177c0.752941 1.505882 1.505882 3.388235 2.258824 4.894117 0.752941 1.882353 1.129412 3.388235 1.882353 5.270589l1.129412 4.517647c0.376471 1.129412 0.376471 2.635294 0.37647 3.764706h3.011765c-1.129412 0-1.882353 0-3.011765 0.37647 0.752941 7.529412 0 14.682353-1.882353 21.835294 1.505882 0.752941 3.011765 1.129412 4.894118 1.129412h134.023529c6.4 0 11.670588-5.270588 11.670589-11.670588 0-6.4-5.270588-11.670588-11.670589-11.670588h-92.235294c-5.270588 0-9.411765-4.141176-9.411764-9.411765s4.141176-9.411765 9.411764-9.411765h111.811765c5.270588 0 9.411765-4.141176 9.411765-9.411764s-4.141176-9.411765-9.411765-9.411765h-83.952941c-5.270588 0-9.411765-4.141176-9.411765-9.411765s4.141176-9.411765 9.411765-9.411765h131.011764c5.270588 0 9.411765-4.141176 9.411765-9.411764-0.376471-4.141176-4.517647-8.282353-9.788235-8.282353z" fill="#bababa"/>

<path d="M1266.070588 914.447059v-0.376471c0-1.129412-0.376471-2.635294-0.37647-3.764706-0.376471-1.505882-0.376471-3.011765-1.129412-4.517647-0.376471-1.882353-1.129412-3.388235-1.882353-5.270588-0.752941-1.505882-1.505882-3.388235-2.258824-4.894118-3.388235-7.152941-8.658824-13.552941-14.682353-18.823529-1.505882-1.129412-3.011765-2.635294-4.894117-3.764706l-32.376471 0.376471h-11.670588l6.023529 3.388235 24.470589 14.305882c2.258824 1.129412 4.141176 2.635294 6.023529 4.517647 4.517647 4.141176 7.905882 9.788235 9.788235 16.188236 0.376471 0.752941 0.376471 1.505882 0.376471 2.635294 1.505882 7.905882 0.376471 16.188235-3.764706 23.341176l-7.152941 12.42353c-9.411765 16.188235-30.117647 21.835294-46.305882 12.423529l-417.882353-242.070588c-6.023529-3.388235-7.529412-11.294118-3.388236-16.564706 12.047059-15.435294 22.964706-31.623529 32.752941-48.564706 3.011765-5.270588 10.164706-7.152941 15.435295-4.141176l108.8 62.870588c1.882353 1.129412 3.764706 1.505882 5.647058 1.505882 11.670588 0 15.435294-15.435294 5.647059-21.082353l-128.752941-74.541176c-5.647059-3.388235-12.8-1.129412-15.811765 4.517647-13.552941 27.105882-30.494118 52.705882-50.447058 76.047059-2.258824 3.011765-4.894118 5.647059-7.152942 8.282353-4.894118 5.270588-3.388235 13.552941 2.635294 17.317647L1174.588235 981.835294c11.670588 6.776471 24.470588 8.658824 36.517647 6.776471 16.564706-2.635294 31.623529-12.047059 40.658824-27.482353l7.152941-12.42353c2.258824-3.764706 4.141176-8.282353 5.270588-12.423529 1.882353-7.152941 2.635294-14.305882 1.882353-21.835294z" fill="#3E0061"/>

<path d="M1242.729412 911.811765c0.376471 0.752941 0.376471 1.505882 0.37647 2.635294 0-1.129412 0-1.882353-0.37647-2.635294zM1240.847059 873.035294c1.882353 1.129412 3.388235 2.258824 4.894117 3.764706-1.505882-1.129412-3.011765-2.635294-4.894117-3.764706zM1263.058824 900.517647c0.752941 1.882353 1.129412 3.388235 1.882352 5.270588-0.752941-1.882353-1.505882-3.388235-1.882352-5.270588zM1266.070588 914.447059c0.752941 7.529412 0 14.682353-1.882353 21.835294 1.882353-7.152941 2.635294-14.305882 1.882353-21.835294zM1262.682353 900.517647c-0.752941-1.505882-1.505882-3.388235-2.258824-4.894118 1.129412 1.505882 1.882353 3.011765 2.258824 4.894118zM1266.070588 914.070588c0-1.129412-0.376471-2.635294-0.37647-3.764706 0 1.129412 0.376471 2.635294 0.37647 3.764706zM1196.423529 873.411765l6.02353 3.388235z" fill="#3E0061"/>

</g>

</svg>