<svg width="18" height="18" viewBox="0 0 18 18" fill="none" xmlns="http://www.w3.org/2000/svg">
<path d="M5.2927 1.81348L6.16795 1.55023C6.64742 1.40565 7.16311 1.44045 7.61881 1.64815C8.0745 1.85585 8.43905 2.22225 8.64445 2.67898L9.32095 4.18348C9.49755 4.57633 9.54673 5.01461 9.46159 5.43683C9.37644 5.85905 9.16125 6.24402 8.8462 6.53773L7.72495 7.58248C7.6922 7.613 7.67145 7.65424 7.66645 7.69873C7.63345 7.99648 7.8352 8.57623 8.30095 9.38248C8.63845 9.96823 8.9452 10.38 9.20545 10.6102C9.3877 10.7715 9.48745 10.806 9.5302 10.794L11.0377 10.3327C11.4494 10.2068 11.8902 10.2129 12.2982 10.3501C12.7063 10.4872 13.0612 10.7487 13.3132 11.0977L14.2732 12.4297C14.5655 12.8347 14.7008 13.332 14.6542 13.8292C14.6076 14.3265 14.3821 14.7899 14.0197 15.1335L13.3545 15.7635C13.0018 16.0975 12.5686 16.3344 12.0972 16.4513C11.6257 16.5681 11.132 16.5609 10.6642 16.4302C8.5987 15.8535 6.74695 14.1105 5.08795 11.2372C3.42745 8.36023 2.84395 5.88223 3.38245 3.80248C3.50333 3.33473 3.74267 2.90601 4.07738 2.55763C4.4121 2.20925 4.83016 1.95297 5.2927 1.81348ZM5.6182 2.89123C5.34062 2.97471 5.08922 3.12829 4.88823 3.33715C4.68724 3.54602 4.54345 3.80314 4.4707 4.08373C4.0192 5.83273 4.53595 8.02948 6.06295 10.6747C7.58845 13.3162 9.2302 14.862 10.968 15.3472C11.2487 15.4255 11.5449 15.4298 11.8277 15.3596C12.1106 15.2894 12.3704 15.1472 12.582 14.9467L13.2465 14.3167C13.4113 14.1606 13.5139 13.9499 13.5351 13.7238C13.5564 13.4977 13.4948 13.2716 13.362 13.0875L12.402 11.7562C12.2874 11.5974 12.126 11.4784 11.9403 11.416C11.7547 11.3536 11.5542 11.3509 11.367 11.4082L9.8557 11.871C8.9782 12.132 8.18245 11.4262 7.32745 9.94498C6.74995 8.94748 6.48145 8.17498 6.54895 7.57423C6.58345 7.26223 6.72895 6.97423 6.9577 6.75973L8.07895 5.71498C8.22209 5.5814 8.31982 5.40636 8.35843 5.21442C8.39703 5.02247 8.37457 4.82326 8.2942 4.64473L7.61845 3.14023C7.52508 2.93262 7.35935 2.76608 7.15221 2.67168C6.94506 2.57729 6.71064 2.56149 6.4927 2.62723L5.6182 2.89123Z" fill="black"/>
</svg>
